<svg xmlns="http://www.w3.org/2000/svg" xml:space="preserve" width="2000" height="276" data-id="lg_6z7lSiykYfpXvM0aLs" data-version="1" viewBox="0 0 2000 276"><g data-padding="20"><g transform="translate(10 4.92)scale(.96435)"><path d="M883.047 266.725a9.21 9.21 0 0 1-9.272 9.27h-35.95a9.21 9.21 0 0 1-9.271-9.27v-36.011a9.21 9.21 0 0 1 9.27-9.24h35.95a9.21 9.21 0 0 1 9.273 9.24Zm221.807-80.22a26.617 26.617 0 0 1-26.617 26.649H917.43a26.617 26.617 0 0 1-26.648-26.617V26.62A26.617 26.617 0 0 1 917.43.004h160.806a26.617 26.617 0 0 1 26.617 26.616Zm-32.695-147.543c0-3.44-2.794-6.202-6.233-6.202H929.74c-3.438 0-6.232 2.763-6.232 6.202v135.263c0 3.438 2.763 6.2 6.232 6.2h136.185c3.439 0 6.233-2.762 6.233-6.2Z"/><rect width="518.6" height="100" x="379.169" y="-310.465" fill="#fff" rx="0" ry="0" transform="translate(367.18 364.49)"/><rect width="560" height="108.48" x="358.469" y="-314.705" fill="none" rx="0" ry="0" transform="translate(388.38 369.23)"/><path d="M774.129 140.625q-4.8 0-9.69-2.06-4.9-2.06-8.6-5.71-3.69-3.65-4.94-8.26l4.9-1.92q1.82 5.86 7.15 9.27 5.33 3.4 11.18 3.4 4.42 0 8.07-1.87 3.64-1.87 5.76-5.28 2.11-3.41 2.11-7.73 0-4.6-2.55-7.58-2.54-2.98-8.59-5.95-8.16-3.94-12.38-6.43-4.23-2.5-6.91-5.91-2.69-3.41-2.69-8.11 0-4.61 2.49-8.16 2.5-3.55 6.68-5.47 4.17-1.92 8.97-1.92 4.03 0 7.54 1.49 3.5 1.48 5.47 4.12t1.78 5.91l-5.38-.29q0-2.78-3.02-4.37-3.03-1.58-6.58-1.58-4.99 0-8.59 2.88t-3.6 7.1q0 3.27 2.21 5.86 2.2 2.59 5.23 4.37 3.02 1.77 7.63 3.88.96.48 2.02.96 1.05.48 2.01 1.06 7.59 4.03 10.8 8.21 3.22 4.17 3.22 10.03t-3.03 10.42q-3.02 4.56-8.01 7.1t-10.66 2.54m60.48-.57q-9.31 0-16.85-4.37-7.53-4.37-11.9-12t-4.37-16.94v-1.83q0-9.41 4.32-17.13 4.32-7.73 11.81-12.15 7.49-4.41 16.61-4.41 9.21 0 16.7 4.41 7.49 4.42 11.81 12.15 4.32 7.72 4.32 17.13v1.83q0 9.5-4.22 17.08-4.23 7.59-11.62 11.91t-16.61 4.32m-.29-5.38q7.59 0 13.73-3.65 6.15-3.64 9.7-10.03 3.55-6.38 3.55-14.25v-1.83q0-7.97-3.6-14.45t-9.79-10.17q-6.19-3.7-13.78-3.7-7.49 0-13.63 3.75-6.14 3.74-9.7 10.22-3.55 6.48-3.55 14.35v1.83q0 7.87 3.55 14.25 3.56 6.39 9.75 10.03 6.19 3.65 13.77 3.65m71.81 5.38q-9.21 0-16.61-4.61-7.39-4.61-11.61-12.38-4.23-7.78-4.23-16.9 0-9.31 4.42-17.47t12-13.06q7.58-4.89 16.42-4.89 8.06 0 15.12 3.64 7.05 3.65 7.44 13.06h-5.76q-.29-6.34-5.81-8.64t-11.47-2.3q-7.2 0-13.35 4.27-6.14 4.27-9.69 11.18-3.56 6.91-3.56 14.5 0 7.29 3.46 13.68 3.46 6.38 9.55 10.22 6.1 3.84 13.78 3.84 7.01 0 13.01-3.17 6-3.16 9.45-8.54l4.71 3.26q-4.52 6.82-11.81 10.56-7.3 3.75-15.46 3.75m36-1.63v-65.67h5.86v65.67Zm14.4.01 28.03-67.49h1.83l28.22 67.49h-6.14l-9.31-21.8h-27.36l-9.12 21.8Zm40.32-27.17-9.02-22.47q-1.54-3.84-2.4-7.48-1.15 4.51-2.31 7.48l-9.02 22.47Zm26.31 27.16v-65.67h5.76v60.29h33.31v5.38Zm64.61 2.2q-4.8 0-9.69-2.06-4.9-2.06-8.59-5.71-3.7-3.65-4.95-8.26l4.9-1.92q1.82 5.86 7.15 9.27 5.33 3.4 11.18 3.4 4.42 0 8.07-1.87t5.76-5.28 2.11-7.73q0-4.6-2.54-7.58-2.55-2.98-8.6-5.95-8.16-3.94-12.38-6.43-4.22-2.5-6.91-5.91t-2.69-8.11q0-4.61 2.5-8.16 2.49-3.55 6.67-5.47 4.17-1.92 8.97-1.92 4.04 0 7.54 1.49 3.5 1.48 5.47 4.12t1.78 5.91l-5.38-.29q0-2.78-3.02-4.37-3.03-1.58-6.58-1.58-4.99 0-8.59 2.88t-3.6 7.1q0 3.27 2.21 5.86t5.23 4.37q3.02 1.77 7.63 3.88.96.48 2.02.96 1.05.48 2.01 1.06 7.59 4.03 10.8 8.21 3.22 4.17 3.22 10.03t-3.02 10.42q-3.03 4.56-8.02 7.1t-10.66 2.54m54.14-2.2v-65.67h5.85v65.67Zm20.83 0v-66.63h1.82l42.34 52.8 3.26 4.32-.09-4.8v-51.45h5.76v65.85h-3.75l-5.37-5.57-33.79-41.85-5-6.53.58 7.58v46.28Zm96.19 1.63q-9.21 0-16.61-4.61-7.39-4.61-11.61-12.38-4.23-7.78-4.23-16.9 0-9.31 4.42-17.47t12-13.06q7.58-4.89 16.42-4.89 8.06 0 15.12 3.64 7.05 3.65 7.44 13.06h-5.76q-.29-6.34-5.81-8.64t-11.47-2.3q-7.2 0-13.35 4.27-6.14 4.27-9.69 11.18-3.56 6.91-3.56 14.5 0 7.29 3.46 13.68 3.46 6.38 9.55 10.22 6.1 3.84 13.78 3.84 7.01 0 13.01-3.17 6-3.16 9.45-8.54l4.71 3.26q-4.52 6.82-11.81 10.56-7.3 3.75-15.46 3.75m38.21-1.25q-1.63 0-2.83-1.2t-1.2-2.83q0-1.73 1.2-2.93t2.83-1.2q1.73 0 2.93 1.2t1.2 2.93q0 1.63-1.2 2.83t-2.93 1.2"/></g><path fill="transparent" stroke="transparent" d="M719.5 0h561v276h-561z"/></g></svg>